<svg width="112.96" height="15.061" viewBox="0 0 112.96 15.061" xmlns="http://www.w3.org/2000/svg"><g id="svgGroup" stroke-linecap="round" fill-rule="evenodd" font-size="9pt" stroke="#ffffff" stroke-width="0" fill="#ffffff" style="stroke:#ffffff;stroke-width:0;fill:#ffffff"><path d="M 11.42 1 L 11.42 14.92 L 9.14 14.92 L 2.28 4.54 L 2.28 14.92 L 0 14.92 L 0 1 L 2.28 1 L 9.14 11.36 L 9.14 1 L 11.42 1 Z M 64.58 7.1 L 64.58 7.18 A 3.567 3.567 0 0 1 65.729 7.761 A 3.267 3.267 0 0 1 66.42 8.49 A 3.525 3.525 0 0 1 66.944 9.688 Q 67.08 10.249 67.08 10.92 Q 67.08 12.1 66.54 13.02 A 3.606 3.606 0 0 1 65.319 14.258 A 4.523 4.523 0 0 1 64.94 14.47 A 4.817 4.817 0 0 1 63.695 14.884 Q 63.094 15 62.4 15 A 6.904 6.904 0 0 1 60.83 14.831 A 4.914 4.914 0 0 1 58.85 13.89 A 3.85 3.85 0 0 1 57.478 11.622 A 5.61 5.61 0 0 1 57.36 10.7 L 59.56 10.7 A 2.715 2.715 0 0 0 59.792 11.635 A 2.434 2.434 0 0 0 60.38 12.43 A 2.493 2.493 0 0 0 61.475 12.998 Q 61.888 13.1 62.38 13.1 A 3.568 3.568 0 0 0 63.12 13.028 Q 63.817 12.88 64.26 12.43 A 2.268 2.268 0 0 0 64.9 11.061 A 3.102 3.102 0 0 0 64.92 10.7 Q 64.92 9.751 64.511 9.174 A 1.808 1.808 0 0 0 64.03 8.71 A 2.892 2.892 0 0 0 63.306 8.374 Q 62.587 8.146 61.537 8.123 A 10.905 10.905 0 0 0 61.3 8.12 L 60.78 8.12 L 60.78 6.24 L 61.32 6.24 Q 62.901 6.221 63.749 5.725 A 2.432 2.432 0 0 0 63.79 5.7 A 1.696 1.696 0 0 0 64.609 4.467 A 2.545 2.545 0 0 0 64.64 4.06 A 2.4 2.4 0 0 0 64.547 3.376 A 1.838 1.838 0 0 0 64.02 2.53 A 2.023 2.023 0 0 0 63.216 2.086 Q 62.907 1.994 62.536 1.969 A 4.188 4.188 0 0 0 62.26 1.96 Q 61.14 1.96 60.52 2.53 Q 59.9 3.1 59.78 3.94 L 57.56 3.94 A 4.531 4.531 0 0 1 57.845 2.588 A 3.613 3.613 0 0 1 58.99 1.04 A 4.677 4.677 0 0 1 60.968 0.134 A 6.663 6.663 0 0 1 62.34 0 Q 63.74 0 64.76 0.5 Q 65.78 1 66.3 1.86 A 3.628 3.628 0 0 1 66.815 3.6 A 4.363 4.363 0 0 1 66.82 3.8 A 3.89 3.89 0 0 1 66.675 4.884 A 3.186 3.186 0 0 1 66.16 5.92 A 3.641 3.641 0 0 1 65.472 6.627 A 2.954 2.954 0 0 1 64.58 7.1 Z M 14.4 1.02 L 16.68 1.02 L 16.68 9.88 A 4.788 4.788 0 0 0 16.761 10.791 Q 16.861 11.308 17.086 11.708 A 2.375 2.375 0 0 0 17.51 12.26 A 2.731 2.731 0 0 0 18.725 12.928 Q 19.153 13.043 19.662 13.058 A 5.286 5.286 0 0 0 19.82 13.06 Q 21.009 13.06 21.777 12.558 A 2.542 2.542 0 0 0 22.15 12.26 A 2.526 2.526 0 0 0 22.798 11.19 Q 22.928 10.783 22.965 10.289 A 5.451 5.451 0 0 0 22.98 9.88 L 22.98 1.02 L 25.26 1.02 L 25.26 9.84 A 6.499 6.499 0 0 1 25.128 11.182 A 4.689 4.689 0 0 1 24.52 12.72 Q 23.78 13.9 22.54 14.48 Q 21.3 15.06 19.8 15.06 A 6.719 6.719 0 0 1 18.051 14.839 A 5.856 5.856 0 0 1 17.07 14.48 Q 15.84 13.9 15.12 12.72 A 4.78 4.78 0 0 1 14.521 11.147 A 6.706 6.706 0 0 1 14.4 9.84 L 14.4 1.02 Z M 38.94 1.02 L 34.6 7.98 L 38.92 14.92 L 36.36 14.92 L 33.22 9.88 L 30.28 14.92 L 27.74 14.92 L 32.06 7.98 L 27.72 1.02 L 30.28 1.02 L 33.44 6.1 L 36.4 1.02 L 38.94 1.02 Z M 96.82 14.92 L 94.1 14.92 L 90.9 9.36 L 89.16 9.36 L 89.16 14.92 L 86.88 14.92 L 86.88 1.02 L 91.68 1.02 A 7.611 7.611 0 0 1 92.899 1.113 Q 93.731 1.248 94.39 1.58 Q 95.5 2.14 96.05 3.08 A 4.049 4.049 0 0 1 96.598 5.036 A 4.809 4.809 0 0 1 96.6 5.18 Q 96.6 6.54 95.81 7.65 Q 95.02 8.76 93.38 9.16 L 96.82 14.92 Z M 40.7 1.02 L 50.4 1.02 L 50.4 2.88 L 46.7 2.88 L 46.7 14.92 L 44.42 14.92 L 44.42 2.88 L 40.7 2.88 L 40.7 1.02 Z M 105.86 15.06 Q 103.92 15.06 102.29 14.15 Q 100.66 13.24 99.71 11.61 A 7.041 7.041 0 0 1 98.771 8.381 A 8.485 8.485 0 0 1 98.76 7.94 A 7.506 7.506 0 0 1 99.113 5.61 A 6.723 6.723 0 0 1 99.71 4.28 Q 100.66 2.66 102.29 1.75 Q 103.92 0.84 105.86 0.84 Q 107.82 0.84 109.45 1.75 Q 111.08 2.66 112.02 4.28 A 7.007 7.007 0 0 1 112.941 7.375 A 8.491 8.491 0 0 1 112.96 7.94 A 7.596 7.596 0 0 1 112.595 10.323 A 6.838 6.838 0 0 1 112.02 11.61 Q 111.08 13.24 109.45 14.15 Q 107.82 15.06 105.86 15.06 Z M 79.78 9.28 L 77.26 9.28 L 77.26 14.92 L 74.98 14.92 L 74.98 1.02 L 79.78 1.02 A 7.747 7.747 0 0 1 80.999 1.111 Q 81.668 1.218 82.226 1.45 A 4.448 4.448 0 0 1 82.49 1.57 Q 83.6 2.12 84.15 3.06 A 4.049 4.049 0 0 1 84.698 5.016 A 4.809 4.809 0 0 1 84.7 5.16 Q 84.7 6.22 84.2 7.16 A 3.467 3.467 0 0 1 83.229 8.287 A 4.625 4.625 0 0 1 82.6 8.69 Q 81.5 9.28 79.78 9.28 Z M 105.86 13.08 A 5.168 5.168 0 0 0 107.318 12.881 A 4.476 4.476 0 0 0 108.32 12.45 A 4.359 4.359 0 0 0 109.991 10.687 A 5.203 5.203 0 0 0 110.01 10.65 A 5.33 5.33 0 0 0 110.548 8.955 A 6.91 6.91 0 0 0 110.62 7.94 Q 110.62 6.4 110.01 5.24 Q 109.4 4.08 108.32 3.46 A 4.695 4.695 0 0 0 106.377 2.863 A 5.787 5.787 0 0 0 105.86 2.84 A 5.246 5.246 0 0 0 104.402 3.036 A 4.514 4.514 0 0 0 103.4 3.46 A 4.311 4.311 0 0 0 101.72 5.222 A 5.133 5.133 0 0 0 101.71 5.24 A 5.247 5.247 0 0 0 101.175 6.904 A 6.868 6.868 0 0 0 101.1 7.94 A 6.596 6.596 0 0 0 101.248 9.366 A 5.183 5.183 0 0 0 101.71 10.65 A 4.472 4.472 0 0 0 102.83 12.053 A 4.296 4.296 0 0 0 103.4 12.45 A 4.644 4.644 0 0 0 105.353 13.058 A 5.702 5.702 0 0 0 105.86 13.08 Z M 89.16 2.88 L 89.16 7.54 L 91.68 7.54 A 4.079 4.079 0 0 0 92.414 7.478 Q 93.162 7.341 93.61 6.9 Q 94.26 6.26 94.26 5.18 Q 94.26 4.1 93.62 3.49 A 1.99 1.99 0 0 0 92.89 3.057 Q 92.381 2.88 91.68 2.88 L 89.16 2.88 Z M 79.78 2.88 L 77.26 2.88 L 77.26 7.42 L 79.78 7.42 A 4.565 4.565 0 0 0 80.494 7.368 Q 80.869 7.309 81.169 7.181 A 1.915 1.915 0 0 0 81.72 6.83 Q 82.36 6.24 82.36 5.16 A 2.879 2.879 0 0 0 82.218 4.217 Q 81.774 2.934 79.936 2.882 A 5.575 5.575 0 0 0 79.78 2.88 Z" vector-effect="non-scaling-stroke"/></g></svg>